<svg xmlns="http://www.w3.org/2000/svg" width="18" height="18" viewBox="0 0 24 24" fill="currentColor">
  <path d="M16.365 1.43c0 1.14-.46 2.192-1.21 2.98-.77.81-2.04 1.43-3.08 1.34-.15-1.1.45-2.27 1.18-3.04.78-.8 2.17-1.37 3.11-1.28zM20.88 17.02c-.6 1.37-1.33 2.71-2.39 3.93-1.02 1.19-2.31 2.67-3.98 2.69-1.49.02-1.95-.86-3.62-.86-1.68 0-2.17.84-3.64.88-1.7.03-2.99-1.29-4.01-2.48C1.5 19.8.23 17.18.02 14.42c-.19-2.52.66-4.9 2.07-6.5 1.14-1.29 2.64-2.05 4.16-2.07 1.63-.03 3.18.91 3.99.91.81 0 2.74-1.12 4.63-.96.79.03 3.01.32 4.43 2.41-.11.07-2.65 1.55-2.62 4.62.03 3.69 3.26 4.92 3.3 4.99z"/>
</svg>

